<svg width="972.0042" height="639.89567" xmlns="http://www.w3.org/2000/svg">

 <g>
  <title>background</title>
  <rect fill="none" id="canvas_background" height="602" width="802" y="-1" x="-1"/>
 </g>
 <g>
  <title>Layer 1</title>
  <path id="svg_1" fill="#e6e6e6" d="m634.37432,279.40567q-1.68018,8.835 -4.03028,17.49c-0.16992,0.67 -0.35986,1.33 -0.5498,2l-21.79,0a7.00779,7.00779 0 0 0 -7,7l0,62.12c-0.66016,1.23 -1.33008,2.45 -2,3.67c-3.46,6.3 -7.06006,12.53 -10.74023,18.68a710.14341,710.14341 0 0 1 -243.69,243.55l5.92041,-13.36c-2.17041,-0.15 -4.35009,-0.3 -6.52,-0.44995c-47.25,-3.23 -94.66016,-6.81 -140.8003,-17.43c-48.27,-11.11 -95.48974,-30.38 -133.31982,-62.33c-37.84033,-31.96 -65.58008,-77.6 -69.43018,-126.98a144.88337,144.88337 0 0 1 5.07031,-50.41c8.86963,-31.52 28.25,-59.88 56.21,-76.66c43.91992,-26.35 101.21,-20.98 147.50976,0.94c46.29,21.91 83.97022,58.18 120.76026,93.81995a466.42118,466.42118 0 0 0 -150.91016,-157.52c-20.56006,-13.16 -42.37988,-24.88 -59.85986,-41.93c-17.47022,-17.04 -30.36036,-40.93 -27.27,-65.14c3.50976,-27.46 26,-48.3 48.52978,-64.37c9,-6.42 18.29,-12.51 27.87012,-18.11c27.02978,-15.84 56.27,-27.79 87.1499,-32.22c41.83008,-6.01 87.01025,3.11 119.08008,30.63c36.12988,31.01 50.94971,81.02 49.54,128.86c22.25976,-32.36 56.58984,-57.13 95.35986,-58.18c40.25,-1.08 78.51026,24.35 98.66992,59.21c20.15038,34.84998 23.77001,77.57002 16.24023,117.12z"/>
  <path id="svg_2" fill="#fff" d="m379.7161,413.80083c23.57462,-2.07613 45.35181,-4.50171 68.19624,-10.966c22.14346,-6.26588 43.45115,-16.755 59.21453,-33.88211c16.95474,-18.42154 26.107,-42.34547 32.56437,-66.16088c3.60029,-13.2782 6.55859,-26.74191 9.3499,-40.21016q4.5429,-21.91983 8.0729,-44.0334q7.02688,-44.01759 10.03312,-88.55371q0.36315,-5.406 0.66589,-10.81583c0.12515,-2.22475 -3.33532,-2.21765 -3.46007,0q-2.46957,43.89984 -8.885,87.45746c-4.22061,28.53 -9.62074,56.93651 -16.4723,84.95519c-5.80436,23.73626 -13.31957,47.84312 -28.20589,67.60251c-13.95951,18.5292 -34.12179,30.63771 -55.89217,37.87744c-22.15269,7.36687 -45.51013,10.30809 -68.65936,12.49516c-2.83979,0.2683 -3.68075,0.524 -6.52219,0.77421c-2.20087,0.19382 -2.22133,3.6557 0,3.46007l0.00003,0.00005z"/>
  <path id="svg_3" fill="#fff" d="m7.49145,365.50843a375.00513,375.00513 0 0 1 87.7008,15.45407a379.00972,379.00972 0 0 1 81.67626,35.55178a369.763,369.763 0 0 1 68.78,51.786a378.86155,378.86155 0 0 1 53.72732,64.062a375.10127,375.10127 0 0 1 38.44627,74.53293q1.82712,4.81062 3.51989,9.67046c0.7291,2.089 4.073,1.19038 3.33647,-0.91983a378.64264,378.64264 0 0 0 -36.72857,-76.38714a383.57085,383.57085 0 0 0 -52.70037,-66.3915a373.9613,373.9613 0 0 0 -67.28042,-53.69216a381.91664,381.91664 0 0 0 -169.5742,-56.37564q-5.44594,-0.45642 -10.90341,-0.751c-2.225,-0.12179 -2.21817,3.33866 0,3.46008l-0.00004,-0.00005z"/>
  <path id="svg_4" fill="#fff" d="m169.26901,38.04162a203.79908,203.79908 0 0 1 53.50135,26.14421a251.24589,251.24589 0 0 1 45.67206,40.56014a336.2502,336.2502 0 0 1 37.81981,52.12109a444.66152,444.66152 0 0 1 30.07012,61.13547a553.19446,553.19446 0 0 1 21.8983,66.49512a621.48414,621.48414 0 0 1 14.00264,69.475a620.23132,620.23132 0 0 1 6.0274,69.86938a553.4891,553.4891 0 0 1 -1.97945,67.02454a426.91315,426.91315 0 0 1 -10.063,61.706a291.56248,291.56248 0 0 1 -18.15494,53.35662q-2.69669,5.84088 -5.72231,11.52063c-1.04652,1.96452 1.93922,3.71452 2.98767,1.74637a266.70637,266.70637 0 0 0 20.43394,-51.42936a398.28713,398.28713 0 0 0 12.18558,-60.49935a526.37456,526.37456 0 0 0 4.02614,-66.88946a613.74369,613.74369 0 0 0 -4.18784,-70.28791a633.10727,633.10727 0 0 0 -12.19009,-70.23182a573.11338,573.11338 0 0 0 -20.38091,-68.39936a475.91036,475.91036 0 0 0 -28.34164,-62.94527a364.89738,364.89738 0 0 0 -36.34133,-54.851a270.58336,270.58336 0 0 0 -44.39641,-43.99624a214.68529,214.68529 0 0 0 -52.06528,-30.03253q-6.8463,-2.725 -13.882,-4.92875c-2.129,-0.66982 -3.04,2.66945 -0.91983,3.33648l0.00002,0z"/>
  <ellipse id="svg_5" fill="#e6e6e6" ry="10" rx="247.5" cy="629.89567" cx="374.5042"/>
  <path id="svg_7" fill="#6c63ff" d="m495.34045,331.88938l33.82412,24.10721l15.128,-18.96712l-32.88021,-26.38264a13.32413,13.32413 0 0 0 -19.18895,2.659l0,0a13.32412,13.32412 0 0 0 3.11704,18.58355z"/>
  <polygon id="svg_8" fill="#ffb8b8" points="425.519 606.957 437.379 610.064 455.009 565.8 437.506 561.213 425.519 606.957"/>
  <path id="svg_9" fill="#2f2e41" transform="rotate(-165.31700134277344 788.2713623046874,1476.2720947265627) " d="m1323.61941,2213.86698l38.53073,0a0,0 0 0 1 0,0l0,14.88687a0,0 0 0 1 0,0l-23.64387,0a14.88686,14.88686 0 0 1 -14.88686,-14.88686l0,0a0,0 0 0 1 0,-0.00001z"/>
  <polygon id="svg_10" fill="#ffb8b8" points="530.942 615.401 543.011 613.245 540.439 565.668 522.627 568.85 530.942 615.401"/>
  <path id="svg_11" fill="#2f2e41" transform="rotate(169.8721466064453 1330.9631347656248,1234.7187499999998) " d="m1973.70997,1973.68203l38.53072,0a0,0 0 0 1 0,0l0,14.88687a0,0 0 0 1 0,0l-23.64385,0a14.88687,14.88687 0 0 1 -14.88687,-14.88687l0,0a0,0 0 0 1 0,0z"/>
  <path id="svg_12" fill="#2f2e41" d="m507.17739,265.50845c2.97389,0.7239 5.39344,3.75427 6.84643,7.26492a50.67542,50.67542 0 0 1 2.70406,11.41446c1.14169,7.25673 2.2381,15.11271 -0.12326,21.83369c-2.76764,7.87732 -10.14212,12.00315 -16.53891,10.06427s-11.48427,-9.21664 -13.22252,-17.59408a42.6097,42.6097 0 0 1 2.92436,-25.08432c1.81714,-4.13706 4.32184,-7.95379 7.6504,-9.82035a7.54966,7.54966 0 0 1 10.06835,2.098"/>
  <path id="svg_13" fill="#2f2e41" d="m524.0042,396.89566l22.97681,205.79407l-18.97681,7.20593l-35,-138l-48.7282,126.17811l-20.7718,1.154s28.5,-196.3321 49.62152,-200.79406l50.87848,-1.53805z"/>
  <circle id="svg_14" fill="#ffb8b8" r="24.56103" cy="267.21063" cx="504.70499"/>
  <path id="svg_15" fill="#6c63ff" d="m515.24639,302.07566l-26.54182,-3.462s-17.30983,20.7718 -16.15584,56.54546s-2.885,46.73654 -2.885,46.73654l55.34045,1c-7.99998,-11 25.46145,-74.17712 -9.75779,-100.82z"/>
  <path id="svg_16" fill="#ffb8b8" d="m529.5042,407.89566a10.52608,10.52608 0 0 0 -1.65137,0.1424l-33.95508,-36.14612l3.46192,-11.53992l-16.73291,-7.50091l-10.38623,25.38772l48.852,38.85943a10.49579,10.49579 0 1 0 10.41162,-9.20264l0.00005,0.00004z"/>
  <path id="svg_17" fill="#6c63ff" d="m492.31454,316.13871l-15.72685,38.44341l21.92579,10.3859l18.158,-38.04525a13.32414,13.32414 0 0 0 -6.97982,-18.0712l0,0a13.32412,13.32412 0 0 0 -17.37712,7.28714z"/>
  <path id="svg_18" fill="#2f2e41" d="m498.28027,289.53983c3.84844,-2.22012 4.259,-7.57567 3.736,-11.98768s-1.39666,-9.33053 1.19673,-12.938c3.09522,-4.30552 9.31374,-4.39124 14.61451,-4.53178s11.75595,-1.69268 13.1294,-6.81435c0.90752,-3.3842 -1.03415,-7.01583 -3.82049,-9.14014s-6.2722,-3.0635 -9.66037,-3.95608c-7.57934,-1.99671 -15.4055,-4.01025 -23.16624,-2.91282a29.5352,29.5352 0 0 0 -25.16265,32.98007c1.25611,9.851 3.07792,14.15262 1.88212,18.49613c-2.22732,8.09027 -11.831,13.2875 -12.02224,21.6766c-0.1496,6.562 5.64658,11.62417 11.30167,14.95607c4.48561,2.64287 9.32664,4.88544 14.496,5.50415s10.73488,-0.56586 14.58577,-4.0696c4.96672,-4.519 6.1953,-12.06877 4.77109,-18.63088s-5.07749,-12.38957 -8.69149,-18.04895"/>
  <rect stroke="#0d0d33" rx="18" id="svg_26" height="233.33357" width="365.59178" y="296.34566" x="597.29253" stroke-width="NaN" fill="#ffffff"/>
  <rect rx="8" stroke="null" id="svg_27" height="70" width="70" y="328.60377" x="618.79796" fill-opacity="null" stroke-opacity="null" stroke-width="NaN" fill="#6c63ff"/>
  <path id="svg_28" fill="#ccc" d="m933.58976,349.42204l-204,0a6.5,6.5 0 0 1 0,-13l204,0a6.5,6.5 0 0 1 0,13z"/>
  <path id="svg_29" fill="#ccc" d="m776.79856,380.33705l-47,0a6.5,6.5 0 0 1 0,-13l47,0a6.5,6.5 0 0 1 0,13z"/>
  <path id="svg_30" fill="#ccc" d="m936.98854,463.44893l-318.00012,0a6.5,6.5 0 1 1 0,-13l318.00012,0a6.5,6.5 0 0 1 0,13z"/>
  <path id="svg_31" fill="#ccc" d="m937.20192,430.87366l-318,0a6.5,6.5 0 0 1 0,-13l318,0a6.5,6.5 0 0 1 0,13z"/>
  <path id="svg_32" fill="#ccc" d="m772.20192,493.29839l-153.2135,0a6.5,6.5 0 1 1 0,-13l153.2135,0a6.5,6.5 0 1 1 0,13z"/>
  <path id="svg_33" fill="#ffb8b8" d="m597.47424,316.3615a10.52585,10.52585 0 0 0 -0.2393,1.64013l-42.95745,24.782l-10.44141,-6.01094l-11.13117,14.57228l22.33714,15.92056l49.00792,-38.66268a10.4958,10.4958 0 1 0 -6.57573,-12.24133l0,-0.00002z"/>
 </g>
</svg>